<svg width="40" height="40" viewBox="0 0 40 40" fill="none" xmlns="http://www.w3.org/2000/svg">
<rect width="40" height="40" rx="4" fill="#4945FF"/>
<path d="M16.3333 13.8889V26.1111H23.6667V23.6667H18.7778V21.2222H23.6667V18.7778H18.7778V16.3333H23.6667V13.8889H16.3333ZM11.4444 9H28.5556C29.2039 9 29.8256 9.25754 30.284 9.71596C30.7425 10.1744 31 10.7961 31 11.4444V28.5556C31 29.2039 30.7425 29.8256 30.284 30.284C29.8256 30.7425 29.2039 31 28.5556 31H11.4444C10.7961 31 10.1744 30.7425 9.71596 30.284C9.25754 29.8256 9 29.2039 9 28.5556V11.4444C9 10.7961 9.25754 10.1744 9.71596 9.71596C10.1744 9.25754 10.7961 9 11.4444 9Z" fill="white"/>
</svg>
