<svg width="17" height="16" viewBox="0 0 17 16" fill="none" xmlns="http://www.w3.org/2000/svg">
<path d="M17 8.04899C17 3.60299 13.418 -0.00100708 9.00005 -0.00100708C4.58005 -7.08003e-06 0.998047 3.60299 0.998047 8.04999C0.998047 12.067 3.92405 15.397 7.74805 16.001V10.376H5.71805V8.04999H7.75005V6.27499C7.75005 4.25799 8.94505 3.14399 10.772 3.14399C11.648 3.14399 12.563 3.30099 12.563 3.30099V5.28099H11.554C10.561 5.28099 10.251 5.90199 10.251 6.53899V8.04899H12.469L12.115 10.375H10.25V16C14.074 15.396 17 12.066 17 8.04899Z" fill="#8E8EA9"/>
</svg>
